HIERARCHY
ROOT Hips
{
	OFFSET 0.000000 0.000000 0.000000
	CHANNELS 6 Xposition Yposition Zposition Zrotation Yrotation Xrotation 
	JOINT LowerBack
	{
		OFFSET 0.000000 0.000000 0.000000
		CHANNELS 3 Zrotation Yrotation Xrotation
		JOINT Spine
		{
			OFFSET 0.028270 2.035590 -0.193380
			CHANNELS 3 Zrotation Yrotation Xrotation
			JOINT Spine1
			{
				OFFSET 0.056720 2.048850 -0.042750
				CHANNELS 3 Zrotation Yrotation Xrotation
				JOINT Neck
				{
					OFFSET 0.000000 0.000000 0.000000
					CHANNELS 3 Zrotation Yrotation Xrotation
					JOINT Neck1
					{
						OFFSET -0.054170 1.746240 0.172020
						CHANNELS 3 Zrotation Yrotation Xrotation
						JOINT Head
						{
							OFFSET 0.104070 1.761360 -0.123970
							CHANNELS 3 Zrotation Yrotation Xrotation
							End Site
							{
								OFFSET 0.000000 0.000000 0.000000
							}
						}
					}
				}
				JOINT LeftShoulder
				{
					OFFSET 0.000000 0.000000 0.000000
					CHANNELS 3 Zrotation Yrotation Xrotation
					JOINT LeftArm
					{
						OFFSET 3.362410 1.200890 -0.311210
						CHANNELS 3 Zrotation Yrotation Xrotation
						JOINT LeftForeArm
						{
							OFFSET 4.983000 -0.000000 -0.000000
							CHANNELS 3 Zrotation Yrotation Xrotation
							JOINT LeftHand
							{
								OFFSET 3.483560 -0.000000 -0.000000
								CHANNELS 3 Zrotation Yrotation Xrotation
								JOINT LeftFingerBase
								{
									OFFSET 0.000000 0.000000 0.000000
									CHANNELS 3 Zrotation Yrotation Xrotation
									JOINT LeftHandIndex1
									{
										OFFSET 0.715260 -0.000000 -0.000000
										CHANNELS 3 Zrotation Yrotation Xrotation
										End Site
										{
											OFFSET 0.000000 0.000000 0.000000
										}
									}
								}
								JOINT LThumb
								{
									OFFSET 0.000000 0.000000 0.000000
									CHANNELS 3 Zrotation Yrotation Xrotation
									End Site
									{
										OFFSET 0.000000 0.000000 0.000000
									}
								}
							}
						}
					}
				}
				JOINT RightShoulder
				{
					OFFSET 0.000000 0.000000 0.000000
					CHANNELS 3 Zrotation Yrotation Xrotation
					JOINT RightArm
					{
						OFFSET -3.136600 1.374050 -0.404650
						CHANNELS 3 Zrotation Yrotation Xrotation
						JOINT RightForeArm
						{
							OFFSET -5.241900 -0.000000 -0.000000
							CHANNELS 3 Zrotation Yrotation Xrotation
							JOINT RightHand
							{
								OFFSET -3.444170 -0.000000 -0.000000
								CHANNELS 3 Zrotation Yrotation Xrotation
								JOINT RightFingerBase
								{
									OFFSET 0.000000 0.000000 0.000000
									CHANNELS 3 Zrotation Yrotation Xrotation
									JOINT RightHandIndex1
									{
										OFFSET -0.622530 -0.000000 -0.000000
										CHANNELS 3 Zrotation Yrotation Xrotation
										End Site
										{
											OFFSET 0.000000 0.000000 0.000000
										}
									}
								}
								JOINT RThumb
								{
									OFFSET 0.000000 0.000000 0.000000
									CHANNELS 3 Zrotation Yrotation Xrotation
									End Site
									{
										OFFSET 0.000000 0.000000 0.000000
									}
								}
							}
						}
					}
				}
			}
		}
	}
}
}
MOTION
Frames: 14
Frame Time: 0.008333
25.800722 16.911145 4.482467 151.762768 -88.105577 -125.700243 7.312525 -2.339336 -6.935617 0.805387 -3.223934 -4.394357 -6.927434 -3.274822 -0.171224 8.363253 -9.074996 -8.380577 -3.890926 -0.280358 -0.275200 0.000000 0.000000 0.000000 -0.710210 4.570981 2.523927 -53.794279 -14.586922 7.607405 -1.100853 -74.060939 -0.032445 6.214544 -0.252568 -0.031484 -0.197005 0.361356 -0.000000 0.000000 0.000000 0.000000 0.000000 0.000000 0.000000 13.979767 -4.874601 1.111191 63.059662 5.659279 -5.720606 0.642638 73.535969 0.011107 1.686835 3.218922 0.052468 0.008600 -0.302571 -0.000000 0.000000 0.000000 0.000000 0.000000 0.000000 0.000000 
25.615579 16.885843 4.440319 143.385448 -88.099154 -117.548169 7.306282 -2.390536 -6.988355 0.814477 -3.278792 -4.387938 -6.923441 -3.331568 -0.106314 8.301546 -9.122591 -8.367333 -3.931305 -0.283886 -0.268976 0.000000 0.000000 0.000000 -0.754409 4.618717 2.512541 -53.603235 -14.203567 7.670655 -1.124083 -73.826781 -0.031322 6.146266 -0.275605 -0.032092 -0.196284 0.355422 -0.000000 0.000000 0.000000 0.000000 0.000000 0.000000 0.000000 14.166699 -4.997320 1.063271 62.761313 6.039808 -6.065134 0.655150 73.154889 0.009367 1.302092 3.245253 0.040768 0.013905 -0.301839 -0.000000 0.000000 0.000000 0.000000 0.000000 0.000000 0.000000 
25.430839 16.864799 4.398002 133.062336 -88.120432 -107.445228 7.301989 -2.464800 -7.056425 0.827571 -3.358205 -4.384297 -6.918780 -3.413632 -0.041773 8.245443 -9.150077 -8.340458 -3.973835 -0.287761 -0.258756 0.000000 0.000000 0.000000 -0.790423 4.648446 2.504314 -53.466419 -13.807839 7.736242 -1.152639 -73.521238 -0.030100 6.059806 -0.287142 -0.031901 -0.195251 0.349083 -0.000000 0.000000 0.000000 0.000000 0.000000 0.000000 0.000000 14.369144 -5.117522 1.008635 62.478758 6.446431 -6.375091 0.668449 72.712591 0.007495 0.890897 3.267703 0.028066 0.019253 -0.300790 0.000000 0.000000 0.000000 0.000000 0.000000 0.000000 0.000000 
25.246990 16.848691 4.356218 118.849917 -88.183027 -93.468102 7.340677 -2.574220 -7.119566 0.854515 -3.477081 -4.377172 -6.913513 -3.535086 0.029450 8.192584 -9.181753 -8.310940 -4.017230 -0.291729 -0.248016 0.000000 0.000000 0.000000 -0.833416 4.680601 2.502847 -53.376884 -13.457408 7.816917 -1.189049 -73.126010 -0.028799 5.950568 -0.282771 -0.030710 -0.194099 0.342550 0.000000 0.000000 0.000000 0.000000 0.000000 0.000000 0.000000 14.583998 -5.267529 0.944472 62.206836 6.914564 -6.630990 0.681901 72.211527 0.005457 0.447284 3.278254 0.014059 0.024676 -0.299342 -0.000000 0.000000 0.000000 0.000000 0.000000 0.000000 0.000000 
25.063904 16.837484 4.314188 95.351801 -88.276076 -70.199056 7.513686 -2.738099 -7.211311 0.915326 -3.665044 -4.374534 -6.911295 -3.724058 0.099374 8.137484 -9.200187 -8.268296 -4.061794 -0.296043 -0.233254 0.000000 0.000000 0.000000 -0.871360 4.669280 2.515096 -53.334399 -13.115579 7.904900 -1.232375 -72.660632 -0.027425 5.813438 -0.257528 -0.028213 -0.192744 0.336083 0.000000 0.000000 0.000000 0.000000 0.000000 0.000000 0.000000 14.796878 -5.439854 0.867926 61.965794 7.387946 -6.851790 0.692409 71.681509 0.003287 -0.022585 3.281257 -0.000753 0.029938 -0.297545 -0.000000 0.000000 0.000000 0.000000 0.000000 0.000000 0.000000 
24.875255 16.833176 4.279697 19.135185 -89.073122 6.077538 9.219541 -2.705980 -7.546532 1.214528 -3.793348 -4.430164 -6.958485 -3.820205 0.180612 8.000729 -9.234185 -8.250994 -4.110925 -0.300883 -0.220197 0.000000 0.000000 0.000000 -1.085386 4.776839 2.501728 -53.385029 -12.767074 8.000106 -1.297507 -72.151471 -0.026177 5.649909 -0.209462 -0.024694 -0.186791 0.331635 0.000000 0.000000 0.000000 0.000000 0.000000 0.000000 0.000000 14.898787 -5.556962 0.785623 61.668490 7.870171 -6.976094 0.708957 71.142795 0.001232 -0.510297 3.275584 -0.016272 0.038560 -0.295129 0.000000 0.000000 0.000000 0.000000 0.000000 0.000000 0.000000 
24.694913 16.831784 4.237619 15.467090 -88.995979 9.584498 9.355692 -2.691559 -7.599442 1.232795 -3.792481 -4.426465 -6.963951 -3.815801 0.246154 7.942933 -9.236534 -8.213362 -4.150076 -0.304451 -0.207691 0.000000 0.000000 0.000000 -1.128321 4.866321 2.482136 -53.389982 -12.447187 8.075138 -1.342609 -71.592215 -0.024592 5.452778 -0.143948 -0.020139 -0.183247 0.323633 0.000000 0.000000 0.000000 0.000000 0.000000 0.000000 0.000000 15.082686 -5.609660 0.726105 61.526660 8.392947 -7.090459 0.722766 70.584565 -0.001001 -1.013468 3.259950 -0.031974 0.044719 -0.294077 0.000000 0.000000 0.000000 0.000000 0.000000 0.000000 0.000000 
24.516226 16.835040 4.195227 13.373235 -88.814769 11.517173 9.456737 -2.697572 -7.652061 1.248166 -3.809380 -4.422599 -6.967502 -3.830256 0.308249 7.880370 -9.233203 -8.169030 -4.186599 -0.307865 -0.193498 0.000000 0.000000 0.000000 -1.171214 4.930961 2.470201 -53.403175 -12.158546 8.162320 -1.390686 -70.995441 -0.022948 5.226229 -0.061793 -0.014984 -0.179618 0.315669 0.000000 0.000000 0.000000 0.000000 0.000000 0.000000 0.000000 15.246968 -5.665759 0.661747 61.439610 8.897996 -7.169568 0.732512 70.050343 -0.003256 -1.517150 3.237723 -0.047479 0.050467 -0.293122 -0.000000 0.000000 0.000000 0.000000 0.000000 0.000000 0.000000 
24.339214 16.842671 4.152499 12.419182 -88.548288 12.308253 9.529258 -2.717082 -7.700172 1.260431 -3.837377 -4.417943 -6.969831 -3.856487 0.366030 7.811770 -9.226416 -8.118868 -4.219844 -0.311062 -0.177891 0.000000 0.000000 0.000000 -1.217321 4.973110 2.465210 -53.413058 -11.907095 8.264200 -1.440618 -70.375340 -0.021272 4.974885 0.032322 -0.009629 -0.175986 0.307867 0.000000 0.000000 0.000000 0.000000 0.000000 0.000000 0.000000 15.386411 -5.722981 0.593933 61.409001 9.376777 -7.214600 0.738089 69.555402 -0.005468 -2.006758 3.211632 -0.062283 0.055691 -0.292331 -0.000000 0.000000 0.000000 0.000000 0.000000 0.000000 0.000000 
24.163769 16.854289 4.109336 12.315075 -88.211852 12.249138 9.569866 -2.745234 -7.741827 1.267941 -3.871167 -4.412303 -6.971440 -3.889035 0.418776 7.737245 -9.216193 -8.062995 -4.249519 -0.314014 -0.160916 0.000000 0.000000 0.000000 -1.267421 4.994254 2.466357 -53.409639 -11.694387 8.382449 -1.491125 -69.748021 -0.019591 4.705332 0.131610 -0.004471 -0.172460 0.300338 0.000000 0.000000 0.000000 0.000000 0.000000 0.000000 0.000000 15.498973 -5.777985 0.524019 61.434278 9.820111 -7.227930 0.739646 69.112356 -0.007565 -2.466425 3.184539 -0.075888 0.060261 -0.291743 0.000000 0.000000 0.000000 0.000000 0.000000 0.000000 0.000000 
23.990206 16.869589 4.065760 12.767193 -87.824352 11.631285 9.575293 -2.776821 -7.773690 1.269185 -3.904994 -4.405346 -6.972538 -3.922056 0.465401 7.656789 -9.201244 -8.000913 -4.275511 -0.316712 -0.142460 0.000000 0.000000 0.000000 -1.323593 4.996143 2.472570 -53.384038 -11.518971 8.516060 -1.540778 -69.130967 -0.017937 4.425769 0.229949 0.000189 -0.169140 0.293164 0.000000 0.000000 0.000000 0.000000 0.000000 0.000000 0.000000 15.583236 -5.826082 0.453571 61.512257 10.222872 -7.211027 0.737720 68.728325 -0.009472 -2.879098 3.159616 -0.087893 0.064032 -0.291384 0.000000 0.000000 0.000000 0.000000 0.000000 0.000000 0.000000 
23.817953 16.888185 4.021696 13.623338 -87.400222 10.611481 9.540039 -2.808590 -7.795870 1.262568 -3.935094 -4.396852 -6.973422 -3.951714 0.507218 7.572205 -9.182147 -7.933801 -4.297852 -0.319144 -0.122862 0.000000 0.000000 0.000000 -1.386080 4.987364 2.482557 -53.329707 -11.384853 8.666097 -1.588597 -68.537316 -0.016343 4.145746 0.321311 0.003953 -0.166178 0.286414 0.000000 0.000000 0.000000 0.000000 0.000000 0.000000 0.000000 15.641811 -5.865770 0.383314 61.637602 10.585532 -7.162504 0.733161 68.404863 -0.011122 -3.230773 3.139381 -0.097998 0.066907 -0.291235 0.000000 0.000000 0.000000 0.000000 0.000000 0.000000 0.000000 
23.647331 16.909850 3.977284 14.681940 -86.960077 9.389874 9.466135 -2.835438 -7.806067 1.247755 -3.956333 -4.387015 -6.974248 -3.972806 0.542182 7.482993 -9.153382 -7.859504 -4.317013 -0.321363 -0.101552 0.000000 0.000000 0.000000 -1.456790 4.967362 2.495278 -53.242435 -11.279805 8.823990 -1.632957 -67.986505 -0.014837 3.873724 0.401616 0.006922 -0.163610 0.280110 0.000000 0.000000 0.000000 0.000000 0.000000 0.000000 0.000000 15.674678 -5.888656 0.315004 61.803646 10.906842 -7.084245 0.726812 68.141113 -0.012452 -3.507872 3.126427 -0.105902 0.068771 -0.291302 0.000000 0.000000 0.000000 0.000000 0.000000 0.000000 0.000000 
23.478096 16.934309 3.932529 15.872119 -86.519661 8.039978 9.353507 -2.854776 -7.803811 1.224386 -3.966053 -4.375541 -6.975152 -3.982571 0.571673 7.390588 -9.114338 -7.779098 -4.333271 -0.323377 -0.078851 0.000000 0.000000 0.000000 -1.535824 4.945961 2.509481 -53.120287 -11.204124 8.985732 -1.673048 -67.489262 -0.013447 3.618114 0.468282 0.008995 -0.161526 0.274270 0.000000 0.000000 0.000000 0.000000 0.000000 0.000000 0.000000 15.685408 -5.892679 0.249117 62.002770 11.193985 -6.972020 0.719737 67.929687 -0.013421 -3.702132 3.122496 -0.111705 0.069582 -0.291542 0.000000 0.000000 0.000000 0.000000 0.000000 0.000000 0.000000 
